<?xml version="1.0" standalone="no"?>
<!DOCTYPE svg PUBLIC "-//W3C//DTD SVG 20010904//EN"
 "http://www.w3.org/TR/2001/REC-SVG-20010904/DTD/svg10.dtd">
<svg version="1.0" xmlns="http://www.w3.org/2000/svg"
 width="256.000000pt" height="256.000000pt" viewBox="0 0 256.000000 256.000000"
 preserveAspectRatio="xMidYMid meet">
<metadata>
Created by potrace 1.11, written by Peter Selinger 2001-2013
</metadata>
<g transform="translate(0.000000,256.000000) scale(0.100000,-0.100000)"
fill="#000000" stroke="none">
<path d="M1217 2494 c-1 -1 -31 -5 -67 -8 -92 -8 -123 -14 -230 -48 -193 -62
-322 -141 -476 -293 -220 -217 -338 -501 -339 -815 0 -106 8 -192 24 -265 29
-133 103 -302 183 -418 50 -72 273 -296 295 -297 10 -1 63 -47 63 -56 0 -3 -7
-1 -15 6 -9 8 -15 9 -15 2 0 -6 5 -14 10 -17 6 -3 10 -12 10 -18 0 -7 -9 1
-19 17 -11 17 -17 35 -14 40 4 6 0 5 -9 -2 -11 -9 -18 -10 -23 -2 -3 6 -11 8
-16 5 -5 -4 -9 0 -9 7 0 10 -2 10 -9 -1 -5 -7 -15 -10 -22 -7 -9 5 -8 2 1 -6
17 -14 21 -39 6 -37 -5 0 -12 -5 -17 -12 -6 -10 -13 -9 -33 5 -14 9 -26 21
-26 26 0 6 -5 10 -12 10 -9 0 -9 -3 0 -12 7 -7 12 -17 12 -22 -1 -6 -10 0 -20
13 -11 13 -20 19 -20 14 0 -5 5 -14 12 -21 16 -16 -4 -16 -22 1 -13 10 -13 10
-2 -2 16 -20 16 -36 -1 -22 -8 6 -18 7 -22 3 -5 -4 -5 1 -2 11 4 11 3 16 -3
12 -6 -4 -10 -12 -9 -18 3 -25 -1 -38 -11 -32 -5 3 -7 11 -4 19 3 7 -2 13 -10
13 -8 0 -12 -6 -8 -15 4 -11 2 -13 -9 -7 -12 8 -12 6 0 -8 18 -23 -2 -22 -22
1 -10 10 -14 22 -10 27 5 4 2 5 -5 1 -14 -8 -9 -18 31 -58 15 -16 17 -16 17
-1 0 19 13 9 16 -12 1 -8 -4 -15 -11 -15 -7 0 -18 -6 -24 -13 -8 -10 -7 -14 4
-14 8 0 12 4 9 9 -3 4 4 8 15 8 11 0 23 -5 26 -10 4 -6 10 -8 15 -5 10 6 33
-22 26 -33 -3 -5 1 -9 9 -9 10 0 11 5 4 19 -7 13 -6 18 3 18 10 0 10 2 -1 9
-11 7 -11 10 0 14 8 4 5 5 -6 4 -12 -1 -19 3 -17 11 1 8 -1 11 -6 8 -8 -5 -9
9 -3 49 1 6 6 3 11 -5 9 -13 10 -13 10 0 0 13 2 13 11 0 9 -13 10 -12 5 3 -4
12 -2 16 6 11 6 -4 8 -3 4 4 -6 11 7 10 36 -3 24 -10 23 -22 -2 -35 -14 -7
-20 -7 -20 0 0 5 8 10 17 10 19 0 9 13 -12 16 -17 3 -17 3 -19 -49 -1 -21 2
-41 6 -43 8 -5 12 9 9 36 -1 11 3 10 14 -4 8 -11 15 -24 15 -29 0 -4 4 -5 10
-2 6 4 3 16 -8 33 -9 14 -11 23 -4 19 6 -5 12 -4 12 2 0 6 5 11 11 11 8 0 7
-5 -1 -15 -11 -13 -9 -20 9 -39 15 -15 19 -29 14 -42 -6 -16 -5 -17 9 -6 9 7
15 20 13 30 -1 9 0 11 2 4 3 -7 10 -9 16 -5 6 3 0 -9 -13 -28 -13 -19 -17 -28
-10 -21 21 18 34 15 19 -5 -11 -15 -11 -16 1 -6 11 10 18 9 34 -5 21 -17 21
-17 2 6 -17 19 -17 22 -3 22 10 0 17 5 17 11 0 5 5 7 10 4 6 -3 10 0 10 7 0 7
7 2 16 -10 15 -21 42 -32 29 -12 -4 6 1 7 11 3 12 -4 15 -3 10 5 -4 7 -5 12
-2 12 3 0 10 -10 17 -21 6 -12 7 -19 1 -15 -6 3 -17 3 -26 0 -12 -5 -13 -9 -3
-19 10 -11 15 -11 28 1 9 8 19 11 24 7 4 -5 5 -2 1 4 -4 7 -2 13 3 13 6 0 11
-7 11 -15 0 -8 5 -16 10 -16 6 -1 14 -2 19 -3 5 0 12 -4 16 -8 11 -10 44 14
38 27 -2 7 3 15 13 19 14 5 15 4 4 -9 -10 -12 -9 -16 4 -21 9 -3 13 -11 9 -18
-3 -6 -1 -6 8 1 15 15 33 18 25 5 -3 -5 1 -9 9 -9 8 0 12 3 10 7 -2 3 5 11 15
18 12 7 21 8 25 2 4 -6 11 -7 17 -4 6 4 5 10 -3 15 -10 6 -10 9 -2 9 18 0 27
-21 13 -30 -7 -5 -21 -7 -30 -5 -9 2 -17 -3 -17 -10 0 -8 5 -11 11 -7 19 11
54 13 61 3 6 -11 35 -3 35 9 0 5 -9 7 -21 5 -17 -3 -19 -1 -9 9 8 11 8 15 -2
19 -8 4 -7 6 5 6 9 1 17 -4 17 -10 0 -5 5 -7 12 -3 6 4 8 3 4 -4 -3 -6 -2 -13
4 -17 6 -4 8 -10 6 -14 -3 -4 1 -8 9 -8 11 0 12 5 3 20 -7 15 -7 18 2 12 7 -4
16 -2 20 5 5 8 9 7 13 -5 4 -9 3 -13 -3 -10 -6 3 -10 2 -10 -3 0 -6 7 -13 16
-16 9 -3 12 -2 9 5 -4 6 3 7 19 3 16 -4 26 -2 26 5 0 6 -6 8 -13 5 -8 -3 -19
1 -25 9 -9 11 -8 14 3 14 8 0 11 -5 8 -10 -3 -5 0 -8 8 -5 8 3 14 10 14 16 0
5 3 14 7 18 4 3 6 -3 3 -15 -6 -30 31 -49 40 -21 7 21 25 28 25 10 0 -5 -4
-10 -10 -10 -5 0 -10 -8 -10 -17 0 -14 2 -15 9 -4 7 11 11 10 20 -5 6 -11 11
-13 11 -6 0 6 7 12 16 12 9 0 12 -5 8 -12 -5 -8 -1 -8 10 1 15 13 19 13 28 0
8 -11 9 -10 4 5 -5 14 -2 17 10 12 22 -8 44 11 37 32 -4 14 -3 14 5 3 7 -10 7
-21 1 -32 -15 -28 -10 -35 7 -11 8 12 20 20 25 16 6 -3 3 -12 -8 -21 -21 -17
2 -7 37 17 14 10 31 15 39 12 8 -2 11 0 7 6 -8 13 11 10 49 -9 17 -8 37 -15
45 -14 8 0 18 -4 22 -10 5 -7 8 -6 8 1 0 7 13 10 30 9 16 -1 27 1 24 6 -3 5
-1 9 5 9 5 0 11 -3 14 -7 2 -5 2 -2 0 6 -2 9 2 11 14 6 45 -17 83 -14 83 8 0
7 -4 7 -12 -1 -16 -16 -31 -15 -22 1 5 8 2 8 -9 -2 -12 -9 -17 -10 -17 -2 0 7
-5 9 -12 5 -6 -4 -8 -3 -5 3 4 6 20 9 37 7 21 -3 29 0 24 8 -4 6 -3 8 4 4 6
-3 15 2 21 11 6 10 11 13 11 7 0 -5 -5 -15 -12 -22 -9 -9 -9 -12 -1 -12 7 0
15 5 18 10 4 6 11 8 16 4 5 -3 6 -10 3 -16 -4 -7 -2 -8 4 -4 7 4 12 0 13 -11
0 -11 3 -13 6 -5 3 7 -3 24 -12 39 l-17 26 25 -19 c13 -10 23 -24 20 -30 -2
-7 0 -15 5 -18 5 -3 9 2 8 11 0 9 5 18 12 20 6 3 10 -1 9 -9 -2 -7 -2 -10 0
-5 3 4 11 7 19 7 9 0 12 -5 8 -12 -4 -7 -3 -8 4 -4 6 4 8 14 5 24 -6 15 -5 15
10 3 10 -8 20 -11 24 -8 3 4 12 2 20 -5 8 -6 13 -7 12 -2 -3 20 2 28 10 15 6
-9 11 -10 15 -2 4 6 2 11 -4 11 -6 0 -9 4 -6 8 3 5 -1 9 -9 9 -8 0 -12 -3 -10
-7 2 -3 -9 -6 -26 -6 -16 0 -29 4 -29 8 0 5 6 8 13 7 27 -3 38 1 31 14 -5 8
-2 8 9 -2 10 -8 17 -9 17 -3 0 6 -8 16 -17 21 -10 6 -13 11 -6 11 6 0 15 -5
19 -12 5 -7 11 -5 21 7 7 11 13 14 13 9 0 -6 -5 -15 -11 -21 -13 -13 -2 -36
13 -27 6 4 8 -1 3 -16 -5 -15 -4 -20 4 -16 6 4 11 14 11 22 0 17 5 18 31 1 17
-10 22 -9 30 5 5 9 15 15 22 13 19 -7 41 11 31 26 -12 20 -14 38 -4 44 5 3 12
0 16 -6 5 -8 3 -9 -5 -4 -8 4 -7 -4 3 -24 17 -32 30 -43 19 -16 -3 9 -2 15 3
14 5 -1 12 0 17 1 6 2 19 6 32 9 3 0 1 10 -5 21 -6 11 -15 18 -21 15 -5 -4 -9
-1 -9 4 0 6 7 11 15 11 8 0 15 5 15 11 0 6 -15 2 -35 -10 l-35 -20 4 22 c3 12
5 24 5 27 1 3 5 -1 10 -9 6 -9 11 -10 15 -2 6 10 -6 15 -26 12 -5 0 -8 5 -8
13 0 8 -4 18 -10 21 -6 3 -7 -1 -4 -10 6 -13 3 -14 -19 -4 -15 7 -23 17 -20
23 4 6 0 5 -9 -2 -11 -9 -18 -10 -23 -2 -3 5 -15 10 -26 10 -11 0 -18 4 -15 8
3 5 -1 9 -9 9 -8 0 -12 -4 -9 -9 3 -4 -2 -8 -11 -8 -9 0 -14 4 -11 9 9 15 -22
21 -33 7 -6 -7 -8 -16 -5 -19 3 -3 -8 -4 -25 -2 -17 2 -33 0 -36 -6 -4 -5 -12
-9 -18 -9 -7 0 -4 5 6 11 9 5 17 15 17 21 0 9 -3 9 -12 0 -7 -7 -17 -12 -22
-12 -6 0 0 7 13 17 23 15 25 15 37 -2 14 -18 14 -18 28 1 8 10 12 21 9 24 -3
3 -8 -1 -10 -7 -6 -18 -23 -16 -23 1 0 8 9 18 20 21 11 4 18 11 15 16 -4 5 -1
9 4 9 24 0 151 126 217 215 25 33 50 67 57 75 7 8 19 29 27 45 8 17 17 32 21
35 13 12 80 182 98 251 30 114 33 133 36 289 5 198 -25 345 -101 508 -19 41
-34 78 -34 83 0 5 -4 9 -8 9 -5 0 -16 15 -24 34 -17 34 -123 170 -170 217 -14
14 -48 43 -74 65 -27 21 -51 42 -54 45 -3 3 -26 20 -52 37 -101 69 -288 149
-389 168 -24 4 -46 8 -49 9 -40 11 -265 26 -273 19z m796 -2201 c-3 -8 -8 -11
-11 -8 -3 3 -16 -2 -29 -10 -13 -9 -23 -13 -23 -10 0 3 15 14 33 25 17 11 26
20 19 20 -7 0 -10 5 -6 11 9 15 24 -9 17 -28z m-1423 14 c0 -5 8 -6 17 -3 10
4 14 4 10 0 -4 -4 -1 -14 5 -23 10 -13 10 -14 -2 -3 -8 6 -21 12 -29 12 -13
-1 -12 -4 3 -15 21 -16 11 -21 -12 -7 -18 12 -23 49 -6 49 8 0 14 -5 14 -10z
m1466 -6 c-3 -5 4 -9 17 -9 40 0 97 -20 97 -33 0 -6 4 -8 9 -5 16 10 6 -22
-14 -44 -13 -14 -14 -20 -5 -20 9 0 7 -5 -5 -13 -14 -11 -15 -16 -5 -22 9 -6
11 -4 5 5 -5 8 -3 11 4 9 17 -6 10 -24 -8 -22 -8 1 -20 -6 -27 -15 -9 -13 -15
-14 -26 -4 -8 6 -25 10 -37 7 -23 -4 -23 -4 -5 18 10 12 25 28 34 35 13 12 13
14 -2 23 -10 6 -18 14 -18 20 0 5 10 1 22 -11 l22 -20 -23 -21 c-12 -12 -20
-23 -17 -26 3 -3 12 2 21 10 9 9 23 13 33 10 9 -3 14 -3 10 2 -4 4 -2 15 5 23
10 13 9 15 -6 9 -11 -4 -16 -3 -12 3 3 6 1 10 -4 10 -6 0 -11 5 -11 11 0 5 5
7 10 4 6 -3 10 0 10 7 0 8 -9 14 -19 15 -14 1 -18 -3 -14 -15 4 -14 3 -14 -5
-2 -6 8 -8 18 -6 22 3 4 -1 8 -8 8 -10 0 -9 3 2 11 13 9 13 10 0 6 -8 -2 -14
-12 -12 -22 2 -10 -1 -14 -7 -10 -6 3 -11 14 -11 23 0 15 -2 15 -10 2 -8 -13
-10 -13 -10 2 0 14 9 22 28 27 2 1 1 -3 -2 -8z m-166 -5 c0 -2 -8 -10 -17 -17
-16 -13 -17 -12 -4 4 13 16 21 21 21 13z m-1176 -14 c3 -5 -1 -9 -9 -9 -8 0
-12 4 -9 9 3 4 7 8 9 8 2 0 6 -4 9 -8z m1328 -37 c2 3 5 -1 5 -8 0 -7 -7 -13
-16 -13 -10 0 -16 9 -16 23 0 20 2 21 11 8 6 -8 13 -13 16 -10z m-1641 -3
c-13 -25 -9 -47 15 -73 11 -13 13 -19 4 -13 -8 5 -19 9 -25 9 -5 1 -9 6 -7 13
1 7 -3 12 -10 12 -6 0 -8 3 -5 7 4 3 -1 16 -10 27 -16 18 -16 19 -1 8 14 -11
18 -10 28 7 6 12 13 21 16 21 2 0 0 -8 -5 -18z m169 8 c0 -5 -7 -7 -15 -4 -8
4 -15 8 -15 10 0 2 7 4 15 4 8 0 15 -4 15 -10z m57 -4 c0 -8 -5 -14 -11 -13
-6 1 -9 -5 -8 -13 2 -8 0 -11 -4 -7 -11 11 -14 38 -4 32 5 -3 11 -1 15 5 8 14
12 13 12 -4z m1361 -11 c-3 -3 -9 2 -12 12 -6 14 -5 15 5 6 7 -7 10 -15 7 -18z
m-1443 -3 c-3 -3 -11 0 -18 7 -9 10 -8 11 6 5 10 -3 15 -9 12 -12z m1697 -26
c3 2 9 -3 12 -13 4 -9 4 -14 0 -10 -4 4 -14 1 -22 -6 -13 -10 -15 -9 -9 8 7
20 7 20 -8 0 -16 -21 -16 -20 -6 34 1 2 7 -2 14 -8 8 -6 16 -8 19 -5z m-172
-6 c0 -5 -4 -10 -10 -10 -5 0 -10 5 -10 10 0 6 5 10 10 10 6 0 10 -4 10 -10z
m-1526 -16 c3 -8 2 -12 -4 -9 -6 3 -10 10 -10 16 0 14 7 11 14 -7z m31 -2 c-3
-3 -11 0 -18 7 -9 10 -8 11 6 5 10 -3 15 -9 12 -12z m51 -21 c0 -16 -4 -17
-18 -10 -10 5 -18 12 -18 15 0 3 4 3 9 -1 5 -3 12 -1 16 5 9 14 11 13 11 -9z
m1321 -13 c-3 -8 -6 -5 -6 6 -1 11 2 17 5 13 3 -3 4 -12 1 -19z m-1250 -14
c-3 -3 -12 -4 -19 -1 -8 3 -5 6 6 6 11 1 17 -2 13 -5z m1227 -24 c4 0 4 5 1
10 -3 6 -1 10 5 10 14 0 8 -22 -7 -27 -7 -3 -17 6 -23 19 -10 21 -10 21 3 6 8
-10 17 -18 21 -18z m-1304 16 c0 -2 -7 -6 -15 -10 -8 -3 -15 -1 -15 4 0 6 7
10 15 10 8 0 15 -2 15 -4z m165 -18 c13 -20 17 -21 25 -8 9 13 10 13 10 0 0
-13 1 -13 10 0 9 14 9 4 1 -39 -1 -2 -8 2 -16 9 -8 7 -15 9 -15 4 -1 -5 -8 4
-16 19 -10 18 -21 27 -30 23 -9 -3 -12 -1 -9 4 10 16 23 12 40 -12z m116 5
c13 -16 12 -17 -3 -4 -10 7 -18 15 -18 17 0 8 8 3 21 -13z m984 7 c3 -5 1 -10
-4 -10 -6 0 -11 5 -11 10 0 6 2 10 4 10 3 0 8 -4 11 -10z m-935 -20 c0 -5 -2
-10 -4 -10 -3 0 -8 5 -11 10 -3 6 -1 10 4 10 6 0 11 -4 11 -10z m540 6 c0 -2
-7 -7 -16 -10 -8 -3 -12 -2 -9 4 6 10 25 14 25 6z m77 -3 c-4 -3 1 -12 11 -19
18 -13 47 0 36 17 -3 5 0 9 6 9 6 0 10 -6 8 -14 -2 -8 2 -15 7 -15 6 -1 10 3
10 8 0 5 4 13 9 18 5 4 6 3 2 -4 -3 -6 -2 -14 4 -18 5 -3 10 -1 10 5 0 6 5 8
10 5 6 -3 10 -1 10 4 0 6 6 11 13 11 6 -1 0 -11 -16 -23 -32 -27 -112 -31
-127 -7 -9 14 -5 30 7 30 4 0 3 -3 0 -7z m-204 -21 c4 9 6 9 6 1 2 -23 -18
-23 -29 -1 -10 21 -10 22 3 5 11 -14 16 -15 20 -5z m-463 -2 c0 -5 -2 -10 -4
-10 -3 0 -8 5 -11 10 -3 6 -1 10 4 10 6 0 11 -4 11 -10z m30 0 c0 -5 -2 -10
-4 -10 -3 0 -8 5 -11 10 -3 6 -1 10 4 10 6 0 11 -4 11 -10z m365 1 c3 -6 -4
-15 -15 -21 -13 -7 -20 -7 -20 0 0 5 7 10 16 10 8 0 12 5 9 10 -3 6 -4 10 -1
10 3 0 7 -4 11 -9z m28 -5 c3 -8 0 -17 -7 -19 -10 -4 -12 1 -9 14 6 23 9 24
16 5z m127 3 c0 -15 -18 -19 -23 -6 -3 8 1 14 9 14 8 0 14 -4 14 -8z"/>
<path d="M2092 275 c5 -6 28 -12 51 -14 4 -1 3 -10 -2 -20 -13 -23 11 -37 28
-17 8 10 6 17 -8 30 -17 15 -84 36 -69 21z m73 -34 c3 -5 2 -12 -3 -15 -5 -3
-9 1 -9 9 0 17 3 19 12 6z"/>
<path d="M2101 156 c-7 -8 -8 -17 -3 -20 6 -3 15 1 21 8 7 8 8 17 3 20 -6 3
-15 -1 -21 -8z"/>
<path d="M501 317 c-1 -12 -6 -16 -13 -11 -7 4 -4 -2 6 -14 13 -15 23 -19 31
-12 6 5 16 6 21 2 4 -4 2 1 -5 10 -7 10 -17 16 -21 13 -5 -3 -11 3 -13 12 -4
17 -5 17 -6 0z m29 -23 c0 -8 -19 -13 -24 -6 -3 5 1 9 9 9 8 0 15 -2 15 -3z"/>
<path d="M2216 278 c3 -5 10 -6 15 -3 13 9 11 12 -6 12 -8 0 -12 -4 -9 -9z"/>
<path d="M2268 255 c5 -11 7 -27 4 -35 -2 -8 -3 -13 -1 -10 2 3 12 15 22 27
12 14 15 23 7 28 -6 3 -10 3 -9 -2 4 -22 -2 -25 -17 -7 -15 19 -15 19 -6 -1z"/>
<path d="M264 239 c-4 -7 -3 -9 4 -5 5 3 13 0 15 -6 4 -9 6 -10 6 -1 1 17 -16
25 -25 12z"/>
<path d="M410 219 c0 -4 5 -11 10 -14 6 -4 8 -11 5 -16 -3 -5 1 -6 9 -3 18 7
22 24 5 24 -5 0 -8 4 -5 8 3 5 -1 9 -9 9 -8 0 -15 -4 -15 -8z"/>
<path d="M2313 215 c0 -8 4 -12 9 -9 5 3 6 10 3 15 -9 13 -12 11 -12 -6z"/>
<path d="M253 206 c0 -15 42 -15 55 -1 4 5 -1 5 -12 1 -10 -3 -24 -2 -31 4 -8
7 -12 6 -12 -4z"/>
<path d="M2286 203 c-6 -14 -5 -15 5 -6 7 7 10 15 7 18 -3 3 -9 -2 -12 -12z"/>
<path d="M310 190 c-13 -8 -12 -10 3 -10 9 0 17 5 17 10 0 12 -1 12 -20 0z"/>
<path d="M477 155 c-4 -9 -11 -13 -17 -10 -5 3 -10 1 -10 -4 0 -10 14 -15 33
-12 4 0 7 -4 7 -10 0 -6 7 -8 16 -5 11 4 15 2 11 -7 -3 -8 0 -14 7 -14 10 0
11 13 7 61 -1 5 -7 3 -15 -3 -11 -10 -16 -9 -24 5 -8 15 -9 15 -15 -1z m42
-18 c13 4 14 3 1 -5 -9 -7 -19 -7 -26 -2 -6 6 -15 6 -19 2 -5 -4 -5 -1 0 6 5
9 11 10 17 4 6 -6 18 -8 27 -5z"/>
<path d="M356 142 c-2 -4 0 -14 6 -22 8 -12 9 -11 4 4 -5 14 -2 17 9 12 9 -3
13 -2 10 4 -7 12 -22 13 -29 2z"/>
<path d="M640 110 c-20 -12 -5 -24 16 -12 9 5 12 12 7 15 -5 3 -15 2 -23 -3z"/>
<path d="M1810 85 c-7 -9 -8 -15 -2 -15 5 0 12 7 16 15 3 8 4 15 2 15 -2 0 -9
-7 -16 -15z"/>
<path d="M665 80 c3 -5 8 -10 11 -10 2 0 4 5 4 10 0 6 -5 10 -11 10 -5 0 -7
-4 -4 -10z"/>
<path d="M1500 65 c-14 -16 -3 -20 19 -6 8 5 9 11 3 15 -5 3 -15 -1 -22 -9z"/>
<path d="M1471 57 c-1 -11 -6 -15 -13 -11 -7 5 -8 3 -3 -5 10 -16 29 2 22 21
-4 8 -6 7 -6 -5z"/>
</g>
</svg>
